<?xml version="1.0" encoding="UTF-8" standalone="no"?>
<!DOCTYPE svg PUBLIC "-//W3C//DTD SVG 1.1//EN" "http://www.w3.org/Graphics/SVG/1.1/DTD/svg11.dtd">
<svg width="100%" height="100%" viewBox="0 0 1200 120" version="1.1" xmlns="http://www.w3.org/2000/svg" xmlns:xlink="http://www.w3.org/1999/xlink" xml:space="preserve" xmlns:serif="http://www.serif.com/" style="fill-rule:evenodd;clip-rule:evenodd;stroke-linejoin:round;stroke-miterlimit:2;">
    <g transform="matrix(1.30401,0,0,1.33333,-13.6528,-163.011)">
        <path d="M195.028,144.258C195.195,144.591 195.362,144.904 195.528,145.196C195.695,145.487 195.82,145.8 195.903,146.133L191.278,146.133C191.445,146.466 191.612,146.862 191.778,147.321C191.945,147.779 192.112,148.216 192.278,148.633L172.653,148.633L173.403,151.133L183.528,151.133L183.903,153.008L182.528,153.008C182.612,153.175 182.653,153.383 182.653,153.633C182.653,153.883 182.695,154.091 182.778,154.258L179.403,154.258L179.528,155.508L182.153,155.508C182.153,155.841 182.174,156.154 182.216,156.446C182.257,156.737 182.278,157.05 182.278,157.383L186.903,157.383C186.987,157.716 187.028,158.008 187.028,158.258L187.028,159.258L175.278,159.258C175.278,159.675 175.299,160.091 175.341,160.508C175.382,160.925 175.403,161.341 175.403,161.758L178.028,161.758C178.028,162.175 178.049,162.591 178.091,163.008C178.132,163.425 178.153,163.841 178.153,164.258L182.653,164.258L182.653,164.883L180.903,164.883L180.903,167.383L181.403,167.383L181.403,169.258L188.778,169.258L188.778,171.758L181.778,171.758L181.778,173.008L181.028,173.008L181.028,173.633C181.028,173.883 180.987,174.091 180.903,174.258L178.653,174.258L178.653,176.758L178.903,176.758C178.82,177.008 178.778,177.341 178.778,177.758L178.778,178.008L183.403,178.008C183.403,178.341 183.382,178.654 183.341,178.946C183.299,179.237 183.278,179.55 183.278,179.883L185.153,179.883C185.153,180.3 185.132,180.716 185.091,181.133C185.049,181.55 184.987,181.966 184.903,182.383L182.153,182.383C182.07,182.55 182.028,182.758 182.028,183.008C182.028,183.258 181.987,183.466 181.903,183.633L166.903,183.633C166.903,183.966 166.82,184.383 166.653,184.883L179.778,184.883C179.612,185.383 179.528,185.8 179.528,186.133L181.403,186.133C181.32,186.466 181.257,186.779 181.216,187.071C181.174,187.362 181.07,187.675 180.903,188.008L180.528,189.258L176.903,189.258L176.653,189.883L182.528,189.883C182.362,190.216 182.278,190.425 182.278,190.508L178.528,190.508L178.278,191.133L178.153,191.133C177.987,191.55 177.82,191.966 177.653,192.383C177.487,192.8 177.278,193.216 177.028,193.633L175.153,193.633L173.778,196.133L175.903,196.133L175.153,197.383L175.278,197.383C175.112,197.55 174.945,197.758 174.778,198.008C174.612,198.258 174.445,198.466 174.278,198.633L173.403,198.633C173.153,198.883 172.987,199.091 172.903,199.258C172.653,199.591 172.403,199.904 172.153,200.196C171.903,200.487 171.612,200.8 171.278,201.133L170.903,201.133C170.487,201.55 170.049,201.966 169.591,202.383C169.132,202.8 168.653,203.216 168.153,203.633L169.278,203.633L166.653,205.508L166.778,205.508C166.112,205.925 165.403,206.341 164.653,206.758C163.903,207.175 163.112,207.591 162.278,208.008L162.153,208.008C161.32,208.425 160.278,208.841 159.028,209.258L159.153,209.258C157.487,209.841 155.737,210.341 153.903,210.758C152.07,211.175 150.195,211.508 148.278,211.758L150.903,211.758C149.57,211.925 148.195,212.05 146.778,212.133C145.362,212.216 143.903,212.258 142.403,212.258L105.778,212.258C105.028,212.258 104.445,212.091 104.028,211.758L101.403,211.758C100.57,211.258 100.07,210.425 99.903,209.258L99.778,209.258L99.778,208.008L100.028,208.008L100.028,205.508L99.778,205.508L99.778,203.633L98.778,203.633L98.778,201.133L99.153,201.133L99.153,199.258L99.028,199.258L99.028,198.633L100.028,198.633L100.028,197.383L99.903,197.383L99.903,196.133L97.653,196.133L97.653,193.633L99.653,193.633L99.653,191.133L99.778,191.133L99.778,190.508L103.528,190.508L103.528,189.883L97.778,189.883L97.778,189.258L101.403,189.258L101.403,186.133L99.653,186.133L99.653,184.883L99.528,184.883L99.528,183.633L102.778,183.633L102.778,182.383L88.403,182.383L88.403,179.883L87.903,179.883L87.903,178.008L89.528,178.008L89.528,176.758L94.653,176.758L94.653,174.258L97.903,174.258L97.903,173.008L99.778,173.008L99.778,171.758L101.778,171.758L101.778,169.258L104.653,169.258L104.653,167.383L107.403,167.383L107.403,164.883L99.028,164.883L99.028,164.258L96.278,164.258L96.278,161.758L90.778,161.758L90.778,159.258L105.028,159.258L105.028,157.383L94.028,157.383L94.028,155.508L100.028,155.508L100.028,154.258L99.778,154.258L99.778,153.008L98.778,153.008L98.778,151.133L93.403,151.133L93.403,148.633L112.903,148.633L112.903,146.133L117.528,146.133L117.528,144.258L95.028,144.258L95.028,141.758L109.778,141.758L109.778,141.133L98.153,141.133L98.153,140.508L121.778,140.508L121.778,138.008L118.778,138.008L118.778,137.383L89.028,137.383L89.028,134.883L92.653,134.883L92.653,133.008L100.403,133.008L100.403,132.383L104.528,132.383L104.528,131.133L102.278,131.133L102.278,130.508L99.653,130.508L99.653,129.258L99.903,129.258L99.903,128.133C99.903,127.966 99.924,127.821 99.966,127.696C100.007,127.571 100.028,127.466 100.028,127.383L100.528,127.383C100.945,125.633 102.07,124.758 103.903,124.758L139.903,124.758C146.32,124.758 152.153,125.633 157.403,127.383L156.903,127.383C158.403,127.883 159.945,128.508 161.528,129.258L161.278,129.258C161.695,129.425 162.132,129.612 162.591,129.821C163.049,130.029 163.445,130.258 163.778,130.508L166.403,130.508L167.528,131.133L169.653,131.133C170.07,131.3 170.424,131.508 170.716,131.758C171.007,132.008 171.32,132.216 171.653,132.383L167.528,132.383C167.695,132.466 167.862,132.55 168.028,132.633C168.195,132.716 168.32,132.841 168.403,133.008L160.653,133.008L163.028,134.883L159.278,134.883C160.195,135.633 161.028,136.466 161.778,137.383L191.528,137.383C191.612,137.466 191.695,137.55 191.778,137.633C191.862,137.716 191.945,137.841 192.028,138.008L195.153,138.008C195.487,138.341 195.82,138.737 196.153,139.196C196.487,139.654 196.778,140.091 197.028,140.508L173.403,140.508C173.487,140.591 173.57,140.675 173.653,140.758C173.737,140.841 173.82,140.966 173.903,141.133L185.528,141.133L185.903,141.758L171.153,141.758C171.737,142.591 172.195,143.425 172.528,144.258L195.028,144.258ZM150.903,153.008C150.403,152.258 149.778,151.633 149.028,151.133L138.903,151.133C137.07,149.8 134.82,149.133 132.153,149.133L124.653,149.133L124.653,151.133L130.028,151.133L130.028,153.008L131.028,153.008L131.028,154.258L131.278,154.258L131.278,155.508L125.278,155.508L125.278,157.383L136.278,157.383L136.278,159.258L122.028,159.258L122.028,161.758L127.528,161.758L127.528,164.258L130.278,164.258L130.278,164.883L138.653,164.883L138.653,167.383L135.903,167.383L135.903,169.258L133.028,169.258L133.028,171.758L131.028,171.758L131.028,173.008L129.153,173.008L129.153,174.258L125.903,174.258L125.903,176.758L120.778,176.758L120.778,178.008L119.153,178.008L119.153,179.883L119.653,179.883L119.653,182.383L134.028,182.383L134.028,183.633L130.778,183.633L130.778,184.883L130.903,184.883L130.903,186.133L132.653,186.133L132.653,187.883L140.778,187.883C143.195,187.883 145.237,187.3 146.903,186.133L144.903,186.133C145.153,185.966 145.403,185.779 145.653,185.571C145.903,185.362 146.112,185.133 146.278,184.883L133.278,184.883C133.445,184.716 133.612,184.529 133.778,184.321C133.945,184.112 134.07,183.883 134.153,183.633L149.153,183.633C149.32,183.466 149.445,183.279 149.528,183.071C149.612,182.862 149.695,182.633 149.778,182.383L152.653,182.383C152.82,181.966 152.945,181.55 153.028,181.133C153.112,180.716 153.195,180.3 153.278,179.883L151.403,179.883C151.487,179.55 151.528,179.237 151.528,178.946C151.528,178.654 151.57,178.341 151.653,178.008L147.028,178.008L147.028,177.758C147.028,177.591 147.049,177.425 147.091,177.258C147.132,177.091 147.153,176.925 147.153,176.758L146.903,176.758L146.903,175.446C146.903,174.987 146.945,174.591 147.028,174.258L149.278,174.258L149.278,173.008L150.028,173.008L150.153,171.758L157.153,171.758L157.153,169.258L149.778,169.258L149.778,167.383L149.278,167.383L149.278,164.883L151.028,164.883L151.028,164.258L146.403,164.258L146.403,161.758L143.653,161.758L143.653,160.508C143.653,160.091 143.612,159.675 143.528,159.258L155.278,159.258L155.278,159.133C155.278,158.8 155.257,158.487 155.216,158.196C155.174,157.904 155.153,157.633 155.153,157.383L150.528,157.383C150.445,157.05 150.362,156.737 150.278,156.446C150.195,156.154 150.112,155.841 150.028,155.508L147.403,155.508C147.32,155.258 147.237,155.029 147.153,154.821C147.07,154.612 146.987,154.425 146.903,154.258L150.278,154.258C150.195,154.008 150.091,153.779 149.966,153.571C149.841,153.362 149.695,153.175 149.528,153.008L150.903,153.008Z" style="fill:white;fill-rule:nonzero;"/>
        <path d="M240.028,146.133L219.653,146.133L219.653,148.633L227.778,148.633L227.778,151.133L238.528,151.133L238.528,153.008L226.403,153.008L226.403,153.633L227.903,153.633L227.903,156.133L224.778,156.133L224.778,156.758L224.528,156.758L224.528,157.383L221.403,157.383L221.403,159.883L227.278,159.883L227.278,160.508L227.528,160.508L227.528,161.133L226.153,161.133L226.153,163.008L225.278,163.008L225.278,163.633L229.403,163.633L229.403,166.133L219.403,166.133L219.403,168.633L223.028,168.633L223.028,170.508L225.028,170.508L225.028,173.008L225.278,173.008L225.278,175.508L224.278,175.508L224.278,178.633L225.403,178.633L225.403,179.883L224.653,179.883L224.653,181.758L224.528,181.758L224.528,182.383L223.528,182.383L223.528,184.883L224.653,184.883L224.653,186.133L224.528,186.133L224.528,193.633L224.653,193.633L224.653,196.133L226.778,196.133L226.778,198.633L225.028,198.633L225.028,199.883L224.528,199.883L224.528,201.133L226.028,201.133L226.028,203.633L223.903,203.633L223.903,204.258L227.028,204.258L227.028,205.508L228.153,205.508L228.153,206.133L227.153,206.133L227.153,208.008L226.653,208.008L226.653,208.883C226.653,209.05 226.632,209.216 226.591,209.383C226.549,209.55 226.487,209.716 226.403,209.883L223.278,209.883C223.195,210.3 222.945,210.716 222.528,211.133L226.028,211.133C225.695,211.466 225.445,211.675 225.278,211.758L218.153,211.758C217.737,212.091 217.153,212.258 216.403,212.258L190.903,212.258C190.153,212.258 189.57,212.091 189.153,211.758L196.278,211.758C195.945,211.675 195.695,211.466 195.528,211.133L192.028,211.133C191.612,210.716 191.362,210.3 191.278,209.883L194.528,209.883C194.445,209.633 194.403,209.3 194.403,208.883L194.403,208.008L194.903,208.008L194.903,206.133L195.903,206.133L195.903,205.508L194.778,205.508L194.778,204.258L191.653,204.258L191.653,203.633L193.778,203.633L193.778,201.133L192.278,201.133L192.278,199.883L192.778,199.883L192.778,198.633L194.528,198.633L194.528,196.133L192.403,196.133L192.403,193.633L192.278,193.633L192.278,186.133L192.403,186.133L192.403,184.883L191.278,184.883L191.278,182.383L192.278,182.383L192.278,181.758L192.403,181.758L192.403,179.883L193.153,179.883L193.153,178.633L192.028,178.633L192.028,175.508L193.028,175.508L193.028,173.008L192.778,173.008L192.778,170.508L190.778,170.508L190.778,168.633L187.153,168.633L187.153,166.133L197.153,166.133L197.153,163.633L193.028,163.633L193.028,163.008L193.903,163.008L193.903,161.133L195.278,161.133L195.278,160.508L195.028,160.508L195.028,159.883L189.153,159.883L189.153,157.383L192.278,157.383L192.278,156.758L192.528,156.758L192.528,156.133L195.653,156.133L195.653,153.633L194.153,153.633L194.153,153.008L206.278,153.008L206.278,151.133L195.528,151.133L195.528,148.633L187.403,148.633L187.403,146.133L207.778,146.133L207.778,145.508L195.028,145.508L195.028,143.633L194.903,143.633L194.903,141.758L192.653,141.758L192.653,141.133L200.278,141.133L200.278,139.883L194.528,139.883L194.528,137.383L195.028,137.383L195.028,135.508L191.528,135.508L191.528,133.008L192.153,133.008L192.153,131.758L191.778,131.758L191.778,130.508L192.778,130.508L192.778,129.883L191.653,129.883L191.653,128.133C191.653,127.716 191.737,127.258 191.903,126.758L192.528,126.758C193.112,125.425 194.153,124.758 195.653,124.758L221.153,124.758C222.653,124.758 223.695,125.425 224.278,126.758L223.653,126.758C223.82,127.258 223.903,127.716 223.903,128.133L223.903,129.883L225.028,129.883L225.028,130.508L224.028,130.508L224.028,131.758L224.403,131.758L224.403,133.008L223.778,133.008L223.778,135.508L227.278,135.508L227.278,137.383L226.778,137.383L226.778,139.883L232.528,139.883L232.528,141.133L224.903,141.133L224.903,141.758L227.153,141.758L227.153,143.633L227.278,143.633L227.278,145.508L240.028,145.508L240.028,146.133Z" style="fill:white;fill-rule:nonzero;"/>
        <path d="M301.653,146.758L301.653,147.133C301.653,147.883 301.403,148.591 300.903,149.258L318.153,149.258C317.57,150.091 316.695,150.508 315.528,150.508L279.778,150.508L279.778,151.133L270.278,151.133L270.278,153.008L266.028,153.008L266.028,155.508L270.278,155.508L270.278,157.383L269.153,157.383L269.153,159.258L268.653,159.258L268.653,159.758L301.903,159.758C302.737,159.758 303.445,160.008 304.028,160.508L304.278,160.508C304.695,160.841 305.028,161.258 305.278,161.758L304.528,161.758C304.778,162.091 304.903,162.55 304.903,163.133L304.903,164.258L304.403,164.258L304.403,164.883L307.653,164.883L307.653,167.383L304.778,167.383L304.778,168.633L305.528,168.633L305.528,170.508L305.903,170.508L305.903,171.133L307.028,171.133L307.028,173.008L305.153,173.008L305.153,173.633L298.778,173.633L298.778,176.133L297.278,176.133L297.278,178.008L306.778,178.008L306.778,180.508L303.278,180.508L303.278,182.008C303.278,182.425 303.237,182.758 303.153,183.008L302.903,183.008C302.57,183.925 302.07,184.55 301.403,184.883L298.903,184.883C298.487,185.216 297.903,185.383 297.153,185.383L263.903,185.383L263.903,186.758L267.653,186.758L267.653,188.008L273.278,188.008L273.278,189.883L261.528,189.883L261.528,191.133L272.278,191.133L272.278,193.008L264.153,193.008L264.153,193.633L270.403,193.633L270.403,196.133L266.903,196.133L266.903,198.633L268.528,198.633L268.528,199.258L267.778,199.258L267.778,201.758L269.778,201.758L269.778,202.383L268.903,202.383L268.903,203.008L267.153,203.008L267.153,204.258L268.903,204.258L268.903,205.508L267.153,205.508L267.153,207.383L273.028,207.383L273.028,208.008L276.903,208.008L276.903,208.883C276.903,208.966 276.882,209.029 276.841,209.071C276.799,209.112 276.778,209.175 276.778,209.258L287.278,209.258C287.278,209.508 287.237,209.716 287.153,209.883L269.653,209.883C269.487,210.633 269.028,211.258 268.278,211.758L277.278,211.758C276.862,212.091 276.278,212.258 275.528,212.258L251.653,212.258C250.903,212.258 250.32,212.091 249.903,211.758L240.778,211.758C240.195,211.341 239.737,210.716 239.403,209.883L256.778,209.883C256.778,209.633 256.737,209.425 256.653,209.258L246.278,209.258L246.278,208.008L242.403,208.008L242.403,207.383L236.528,207.383L236.528,205.508L238.278,205.508L238.278,204.258L236.528,204.258L236.528,203.008L238.278,203.008L238.278,202.383L239.153,202.383L239.153,201.758L237.153,201.758L237.153,199.258L237.903,199.258L237.903,198.633L236.278,198.633L236.278,196.133L239.778,196.133L239.778,193.633L233.528,193.633L233.528,193.008L241.653,193.008L241.653,191.133L230.903,191.133L230.903,189.883L242.653,189.883L242.653,188.008L237.028,188.008L237.028,186.758L233.278,186.758L233.278,184.883L235.778,184.883L235.778,183.008L236.028,183.008L236.028,180.508L239.528,180.508L239.528,178.008L230.028,178.008L230.028,176.133L231.528,176.133L231.528,173.633L237.903,173.633L237.903,173.008L239.778,173.008L239.778,171.133L238.653,171.133L238.653,170.508L238.278,170.508L238.278,168.633L237.528,168.633L237.528,167.383L240.403,167.383L240.403,164.883L237.153,164.883L237.153,164.258L237.653,164.258L237.653,161.758L238.278,161.758L238.278,160.508L238.028,160.508L238.028,159.258L238.528,159.258L238.528,157.383L239.653,157.383L239.653,155.508L235.403,155.508L235.403,153.008L239.653,153.008L239.653,151.133L249.153,151.133L249.153,149.258L231.903,149.258L231.903,146.758L250.903,146.758L250.903,144.883L232.528,144.883L232.528,143.633L233.028,143.633L233.028,142.383L243.653,142.383L243.653,139.883L239.028,139.883L239.028,137.383L241.153,137.383L241.153,134.883L237.903,134.883L237.903,132.383L238.278,132.383L238.278,130.508L237.153,130.508L237.153,128.633L237.778,128.633L237.778,128.133C237.778,127.8 237.82,127.55 237.903,127.383L232.903,127.383C232.987,126.966 233.132,126.612 233.341,126.321C233.549,126.029 233.778,125.758 234.028,125.508L233.028,125.508C233.695,125.008 234.403,124.758 235.153,124.758L298.153,124.758C298.987,124.758 299.695,125.008 300.278,125.508L301.278,125.508C301.862,125.925 302.278,126.55 302.528,127.383L307.403,127.383C307.487,127.55 307.528,127.8 307.528,128.133L307.528,128.633L306.903,128.633L306.903,130.508L308.028,130.508L308.028,132.383L307.653,132.383L307.653,134.883L310.903,134.883L310.903,137.383L308.778,137.383L308.778,139.883L313.403,139.883L313.403,142.383L302.778,142.383L302.778,143.633L302.278,143.633L302.278,144.883L320.653,144.883L320.653,146.758L301.653,146.758Z" style="fill:white;fill-rule:nonzero;"/>
        <path d="M382.403,146.758L382.403,147.133C382.403,147.883 382.153,148.591 381.653,149.258L398.903,149.258C398.32,150.091 397.445,150.508 396.278,150.508L360.528,150.508L360.528,151.133L351.028,151.133L351.028,153.008L346.778,153.008L346.778,155.508L351.028,155.508L351.028,157.383L349.903,157.383L349.903,159.258L349.403,159.258L349.403,159.758L382.653,159.758C383.487,159.758 384.195,160.008 384.778,160.508L385.028,160.508C385.445,160.841 385.778,161.258 386.028,161.758L385.278,161.758C385.528,162.091 385.653,162.55 385.653,163.133L385.653,164.258L385.153,164.258L385.153,164.883L388.403,164.883L388.403,167.383L385.528,167.383L385.528,168.633L386.278,168.633L386.278,170.508L386.653,170.508L386.653,171.133L387.778,171.133L387.778,173.008L385.903,173.008L385.903,173.633L379.528,173.633L379.528,176.133L378.028,176.133L378.028,178.008L387.528,178.008L387.528,180.508L384.028,180.508L384.028,182.008C384.028,182.425 383.987,182.758 383.903,183.008L383.653,183.008C383.32,183.925 382.82,184.55 382.153,184.883L379.653,184.883C379.237,185.216 378.653,185.383 377.903,185.383L344.653,185.383L344.653,186.758L348.403,186.758L348.403,188.008L354.028,188.008L354.028,189.883L342.278,189.883L342.278,191.133L353.028,191.133L353.028,193.008L344.903,193.008L344.903,193.633L351.153,193.633L351.153,196.133L347.653,196.133L347.653,198.633L349.278,198.633L349.278,199.258L348.528,199.258L348.528,201.758L350.528,201.758L350.528,202.383L349.653,202.383L349.653,203.008L347.903,203.008L347.903,204.258L349.653,204.258L349.653,205.508L347.903,205.508L347.903,207.383L353.778,207.383L353.778,208.008L357.653,208.008L357.653,208.883C357.653,208.966 357.632,209.029 357.591,209.071C357.549,209.112 357.528,209.175 357.528,209.258L368.028,209.258C368.028,209.508 367.987,209.716 367.903,209.883L350.403,209.883C350.237,210.633 349.778,211.258 349.028,211.758L358.028,211.758C357.612,212.091 357.028,212.258 356.278,212.258L332.403,212.258C331.653,212.258 331.07,212.091 330.653,211.758L321.528,211.758C320.945,211.341 320.487,210.716 320.153,209.883L337.528,209.883C337.528,209.633 337.487,209.425 337.403,209.258L327.028,209.258L327.028,208.008L323.153,208.008L323.153,207.383L317.278,207.383L317.278,205.508L319.028,205.508L319.028,204.258L317.278,204.258L317.278,203.008L319.028,203.008L319.028,202.383L319.903,202.383L319.903,201.758L317.903,201.758L317.903,199.258L318.653,199.258L318.653,198.633L317.028,198.633L317.028,196.133L320.528,196.133L320.528,193.633L314.278,193.633L314.278,193.008L322.403,193.008L322.403,191.133L311.653,191.133L311.653,189.883L323.403,189.883L323.403,188.008L317.778,188.008L317.778,186.758L314.028,186.758L314.028,184.883L316.528,184.883L316.528,183.008L316.778,183.008L316.778,180.508L320.278,180.508L320.278,178.008L310.778,178.008L310.778,176.133L312.278,176.133L312.278,173.633L318.653,173.633L318.653,173.008L320.528,173.008L320.528,171.133L319.403,171.133L319.403,170.508L319.028,170.508L319.028,168.633L318.278,168.633L318.278,167.383L321.153,167.383L321.153,164.883L317.903,164.883L317.903,164.258L318.403,164.258L318.403,161.758L319.028,161.758L319.028,160.508L318.778,160.508L318.778,159.258L319.278,159.258L319.278,157.383L320.403,157.383L320.403,155.508L316.153,155.508L316.153,153.008L320.403,153.008L320.403,151.133L329.903,151.133L329.903,149.258L312.653,149.258L312.653,146.758L331.653,146.758L331.653,144.883L313.278,144.883L313.278,143.633L313.778,143.633L313.778,142.383L324.403,142.383L324.403,139.883L319.778,139.883L319.778,137.383L321.903,137.383L321.903,134.883L318.653,134.883L318.653,132.383L319.028,132.383L319.028,130.508L317.903,130.508L317.903,128.633L318.528,128.633L318.528,128.133C318.528,127.8 318.57,127.55 318.653,127.383L313.653,127.383C313.737,126.966 313.882,126.612 314.091,126.321C314.299,126.029 314.528,125.758 314.778,125.508L313.778,125.508C314.445,125.008 315.153,124.758 315.903,124.758L378.903,124.758C379.737,124.758 380.445,125.008 381.028,125.508L382.028,125.508C382.612,125.925 383.028,126.55 383.278,127.383L388.153,127.383C388.237,127.55 388.278,127.8 388.278,128.133L388.278,128.633L387.653,128.633L387.653,130.508L388.778,130.508L388.778,132.383L388.403,132.383L388.403,134.883L391.653,134.883L391.653,137.383L389.528,137.383L389.528,139.883L394.153,139.883L394.153,142.383L383.528,142.383L383.528,143.633L383.028,143.633L383.028,144.883L401.403,144.883L401.403,146.758L382.403,146.758Z" style="fill:white;fill-rule:nonzero;"/>
        <path d="M473.028,169.883L496.528,169.883L496.528,170.508L490.153,170.508L490.153,173.008L480.028,173.008L480.028,175.508L479.153,175.508L479.153,176.133L480.278,176.133L480.278,178.633L473.403,178.633L473.403,179.258C473.403,179.591 473.382,179.904 473.341,180.196C473.299,180.487 473.278,180.8 473.278,181.133L478.278,181.133C478.278,181.466 478.257,181.779 478.216,182.071C478.174,182.362 478.153,182.675 478.153,183.008L475.528,183.008L475.153,185.508L477.153,185.508C477.07,185.675 477.028,185.883 477.028,186.133C477.028,186.383 476.987,186.591 476.903,186.758L478.403,186.758C478.32,187.175 477.987,188.841 477.903,189.258L478.028,189.258C477.945,189.675 477.862,190.091 477.778,190.508C477.695,190.925 477.57,191.341 477.403,191.758L477.903,191.758C477.903,191.841 477.82,192.05 477.653,192.383L478.278,192.383C478.112,192.8 477.445,194.466 477.278,194.883L476.903,194.883L475.903,196.758L475.653,196.758L474.528,198.633L474.903,198.633C474.653,198.966 474.403,199.279 474.153,199.571C473.903,199.862 473.695,200.175 473.528,200.508L472.028,200.508C471.695,201.008 471.362,201.425 471.028,201.758L469.903,201.758L468.028,203.633L468.278,203.633L467.528,204.258L459.278,204.258L458.528,204.883L459.278,204.883L457.653,206.133L465.278,206.133L464.278,206.758L470.653,206.758C469.903,207.175 469.153,207.591 468.403,208.008C467.653,208.425 466.862,208.841 466.028,209.258L463.528,209.258C463.278,209.341 463.028,209.425 462.778,209.508C462.528,209.591 462.278,209.716 462.028,209.883L466.903,209.883C466.57,209.966 466.278,210.05 466.028,210.133C465.778,210.216 465.528,210.341 465.278,210.508L448.778,210.508C448.195,210.758 447.549,210.987 446.841,211.196C446.132,211.404 445.403,211.591 444.653,211.758L457.278,211.758C456.195,212.008 455.091,212.237 453.966,212.446C452.841,212.654 451.695,212.841 450.528,213.008L435.403,213.008C434.07,213.175 432.674,213.3 431.216,213.383C429.757,213.466 428.32,213.508 426.903,213.508C425.403,213.508 423.945,213.466 422.528,213.383C421.112,213.3 419.695,213.175 418.278,213.008L433.403,213.008C432.237,212.841 431.091,212.654 429.966,212.446C428.841,212.237 427.737,212.008 426.653,211.758L414.028,211.758C413.278,211.591 412.57,211.404 411.903,211.196C411.237,210.987 410.57,210.758 409.903,210.508L426.278,210.508C426.028,210.341 425.757,210.216 425.466,210.133C425.174,210.05 424.903,209.966 424.653,209.883L419.778,209.883L418.403,209.258L421.028,209.258C420.195,208.841 419.403,208.425 418.653,208.008C417.903,207.591 417.153,207.175 416.403,206.758L410.153,206.758C409.987,206.591 409.841,206.466 409.716,206.383C409.591,206.3 409.445,206.216 409.278,206.133L401.653,206.133C401.32,205.966 401.028,205.758 400.778,205.508C400.528,205.258 400.278,205.05 400.028,204.883L399.278,204.883L398.528,204.258L406.778,204.258L406.028,203.633L405.903,203.633L404.028,201.758L405.278,201.758L404.153,200.508L405.528,200.508L404.278,198.633L403.903,198.633L402.778,196.758L403.028,196.758C402.862,196.425 402.716,196.112 402.591,195.821C402.466,195.529 402.32,195.216 402.153,194.883L402.403,194.883C402.237,194.466 401.57,192.8 401.403,192.383L400.903,192.383L400.653,191.758L400.153,191.758C399.82,191.008 399.57,190.175 399.403,189.258L399.153,189.258C399.07,188.841 398.737,187.175 398.653,186.758L399.278,186.758C399.195,186.591 399.153,186.383 399.153,186.133C399.153,185.883 399.112,185.675 399.028,185.508L399.903,185.508L399.653,183.008L399.903,183.008C399.82,182.675 399.778,182.362 399.778,182.071L399.778,181.133L398.778,181.133L398.778,178.633L393.278,178.633L393.278,176.133L388.653,176.133L388.653,175.508L392.653,175.508L392.653,173.008L403.153,173.008L403.153,170.508L416.028,170.508L416.028,169.883L405.903,169.883L405.903,168.008L402.278,168.008L402.278,166.133L397.903,166.133L397.903,164.258L392.653,164.258L392.653,161.758L397.903,161.758L397.903,157.383L399.278,157.383L399.278,156.133L399.903,156.133L399.903,155.508L400.278,155.508L400.278,153.008L399.153,153.008L399.153,151.758L399.778,151.758L399.778,151.133L397.903,151.133L397.903,148.633L396.528,148.633L396.528,147.383L386.903,147.383L386.903,146.133L375.653,146.133L375.653,144.883L406.403,144.883L406.403,144.258L397.278,144.258L397.278,141.758L399.403,141.758L399.403,140.508L398.028,140.508L398.028,138.633L411.653,138.633L411.653,136.133L391.278,136.133L391.278,135.508L405.278,135.508L405.278,134.258L398.403,134.258L398.403,133.008L395.528,133.008L395.528,131.758L404.778,131.758L404.778,129.258L399.278,129.258L399.278,128.633L399.028,128.633L399.028,128.133C399.028,127.466 399.112,127.008 399.278,126.758L398.528,126.758C399.112,125.425 400.153,124.758 401.653,124.758L426.153,124.758C427.57,124.758 428.57,125.425 429.153,126.758L429.903,126.758C430.153,127.091 430.278,127.55 430.278,128.133L430.278,128.633L430.528,128.633L430.528,129.258L436.028,129.258L436.028,131.758L426.778,131.758L426.778,133.008L429.653,133.008L429.653,134.258L436.528,134.258L436.528,135.508L422.528,135.508L422.528,136.133L442.903,136.133L442.903,138.633L429.278,138.633L429.278,140.508L430.653,140.508L430.653,141.758L428.528,141.758L428.528,144.258L447.653,144.258L447.653,141.758L448.778,141.758L448.778,140.508L454.653,140.508L454.653,138.633L464.403,138.633L464.403,136.133L453.903,136.133L453.903,135.508L445.653,135.508L445.653,134.258L447.528,134.258L447.528,133.008L457.403,133.008L457.403,131.758L451.403,131.758L451.403,129.258L448.653,129.258L448.653,128.633L446.028,128.633L446.028,128.133C446.028,127.466 446.112,127.008 446.278,126.758L449.028,126.758C449.612,125.425 450.653,124.758 452.153,124.758L476.653,124.758C478.153,124.758 479.195,125.425 479.778,126.758L476.903,126.758C477.153,127.091 477.278,127.55 477.278,128.133L477.278,128.633L479.903,128.633L479.903,129.258L482.653,129.258L482.653,131.758L488.653,131.758L488.653,133.008L478.778,133.008L478.778,134.258L476.903,134.258L476.903,135.508L485.153,135.508L485.153,136.133L495.653,136.133L495.653,138.633L485.903,138.633L485.903,140.508L480.028,140.508L480.028,141.758L478.903,141.758L478.903,144.258L465.903,144.258L465.903,144.883L479.028,144.883L479.028,146.133L472.653,146.133L472.653,147.383L463.903,147.383L463.903,148.633L473.028,148.633L473.028,151.133L478.028,151.133L478.028,151.758L481.028,151.758L481.028,153.008L481.528,153.008L481.528,155.508L480.028,155.508L480.028,156.133L479.903,156.133L479.903,157.383L480.903,157.383L480.903,159.883L482.403,159.883L482.403,161.758L482.778,161.758L482.778,164.258L472.778,164.258L472.778,166.133L477.278,166.133L477.278,168.008L473.028,168.008L473.028,169.883ZM433.528,168.008L437.153,168.008L437.153,169.883L441.778,169.883L441.778,168.008L446.028,168.008L446.028,166.133L441.528,166.133L441.528,164.258L451.528,164.258L451.528,161.758L451.153,161.758L451.153,159.883L449.653,159.883L449.653,157.383L448.653,157.383L448.653,156.133L448.778,156.133L448.778,155.508L450.278,155.508L450.278,153.008L449.778,153.008L449.778,151.758L446.778,151.758L446.778,151.133L441.778,151.133L441.778,148.633L432.653,148.633L432.653,147.383L441.403,147.383L441.403,146.133L447.778,146.133L447.778,144.883L406.903,144.883L406.903,146.133L418.153,146.133L418.153,147.383L427.778,147.383L427.778,148.633L429.153,148.633L429.153,151.133L431.028,151.133L431.028,151.758L430.403,151.758L430.403,153.008L431.528,153.008L431.528,155.508L431.153,155.508L431.153,156.133L430.528,156.133L430.528,157.383L429.153,157.383L429.153,161.758L423.903,161.758L423.903,164.258L429.153,164.258L429.153,166.133L433.528,166.133L433.528,168.008ZM458.903,170.508L465.278,170.508L465.278,169.883L447.278,169.883L447.278,170.508L434.403,170.508L434.403,173.008L423.903,173.008L423.903,175.508L419.903,175.508L419.903,176.133L424.528,176.133L424.528,178.633L430.028,178.633L430.028,179.946C430.028,180.321 430.07,180.716 430.153,181.133L431.153,181.133L431.528,183.008L431.403,183.008C431.57,183.841 432.028,184.675 432.778,185.508L431.903,185.508C432.237,186.008 432.653,186.425 433.153,186.758L432.528,186.758C433.945,187.841 435.945,188.383 438.528,188.383C441.028,188.383 442.987,187.841 444.403,186.758L443.028,186.758C443.528,186.425 443.945,186.008 444.278,185.508L442.403,185.508C442.903,184.841 443.362,184.008 443.778,183.008L446.403,183.008C446.57,182.675 446.674,182.362 446.716,182.071C446.757,181.779 446.82,181.466 446.903,181.133L441.903,181.133C441.987,180.716 442.049,180.321 442.091,179.946C442.132,179.571 442.153,179.175 442.153,178.758L442.153,178.633L449.028,178.633L449.028,176.133L447.903,176.133L447.903,175.508L448.778,175.508L448.778,173.008L458.903,173.008L458.903,170.508Z" style="fill:white;fill-rule:nonzero;"/>
        <path d="M570.153,199.883L565.028,199.883L563.903,201.133L583.028,201.133C582.945,201.216 582.57,201.591 582.403,201.758L552.903,201.758C552.487,202.175 552.049,202.591 551.591,203.008C551.132,203.425 550.653,203.841 550.153,204.258L559.278,204.258L557.653,205.508L574.653,205.508L573.653,206.133L566.278,206.133C566.195,206.216 566.049,206.3 565.841,206.383C565.632,206.466 565.445,206.591 565.278,206.758L556.903,206.758L553.403,208.633L558.278,208.633C557.195,209.133 556.112,209.571 555.028,209.946C553.945,210.321 552.82,210.716 551.653,211.133L547.153,211.133C544.32,211.966 541.237,212.591 537.903,213.008L538.528,213.008C537.195,213.175 535.82,213.3 534.403,213.383C532.987,213.466 531.57,213.508 530.153,213.508C528.57,213.508 527.007,213.466 525.466,213.383C523.924,213.3 522.445,213.175 521.028,213.008L520.528,213.008C516.945,212.591 513.737,211.966 510.903,211.133L515.403,211.133C514.153,210.716 512.987,210.321 511.903,209.946C510.82,209.571 509.737,209.133 508.653,208.633L503.778,208.633C503.195,208.3 502.612,207.987 502.028,207.696C501.445,207.404 500.862,207.091 500.278,206.758L508.778,206.758L507.778,206.133L515.153,206.133C515.07,205.966 514.945,205.841 514.778,205.758C514.612,205.675 514.445,205.591 514.278,205.508L497.278,205.508C496.945,205.341 496.653,205.133 496.403,204.883C496.153,204.633 495.903,204.425 495.653,204.258L486.403,204.258C485.987,203.841 485.549,203.425 485.091,203.008C484.632,202.591 484.195,202.175 483.778,201.758L513.278,201.758C513.195,201.591 513.112,201.466 513.028,201.383C512.945,201.3 512.862,201.216 512.778,201.133L493.653,201.133C493.32,200.8 492.987,200.383 492.653,199.883L497.778,199.883C497.695,199.716 497.612,199.591 497.528,199.508C497.445,199.425 497.362,199.341 497.278,199.258L512.903,199.258L511.778,197.383L504.028,197.383L503.653,196.758L486.028,196.758C485.945,196.425 485.82,196.112 485.653,195.821C485.487,195.529 485.32,195.216 485.153,194.883L493.528,194.883L492.778,193.008L489.778,193.008L489.528,192.383L490.903,192.383C490.82,192.05 490.737,191.737 490.653,191.446C490.57,191.154 490.487,190.841 490.403,190.508L489.403,190.508C489.403,190.175 489.382,189.862 489.341,189.571C489.299,189.279 489.237,188.966 489.153,188.633L488.153,188.633C488.153,188.3 488.132,188.008 488.091,187.758C488.049,187.508 488.028,187.216 488.028,186.883L488.028,186.758L487.903,186.758C487.903,186.591 487.924,186.466 487.966,186.383C488.007,186.3 488.028,186.216 488.028,186.133L490.903,186.133C491.32,184.8 492.195,184.133 493.528,184.133L517.278,184.133C518.612,184.133 519.612,184.3 520.278,184.633C520.945,184.966 521.695,185.466 522.528,186.133L519.653,186.133L519.778,186.258C519.945,186.341 520.091,186.425 520.216,186.508C520.341,186.591 520.445,186.675 520.528,186.758L520.653,186.758C521.737,187.591 523.07,188.216 524.653,188.633L525.778,188.633C526.862,188.966 528.32,189.133 530.153,189.133C531.237,189.133 532.237,189.091 533.153,189.008C534.07,188.925 534.862,188.8 535.528,188.633L535.153,188.633C537.07,188.216 538.278,187.591 538.778,186.758L538.528,186.758C538.695,186.425 538.778,186.216 538.778,186.133L540.028,186.133L540.153,185.633C540.153,184.883 539.862,184.216 539.278,183.633L538.278,183.633C537.528,182.883 536.195,182.258 534.278,181.758L533.903,181.758C533.153,181.508 532.278,181.279 531.278,181.071C530.278,180.862 529.112,180.675 527.778,180.508L527.028,180.508L521.903,179.758C521.32,179.675 520.757,179.591 520.216,179.508C519.674,179.425 519.112,179.341 518.528,179.258C515.112,178.675 511.82,177.841 508.653,176.758L506.403,176.758C505.237,176.341 504.153,175.925 503.153,175.508L501.403,175.508C500.987,175.341 500.57,175.154 500.153,174.946C499.737,174.737 499.32,174.508 498.903,174.258L488.028,174.258C487.445,173.925 486.903,173.612 486.403,173.321C485.903,173.029 485.403,172.716 484.903,172.383L508.153,172.383C507.737,172.05 507.341,171.737 506.966,171.446C506.591,171.154 506.195,170.841 505.778,170.508L480.903,170.508C480.653,170.341 480.424,170.133 480.216,169.883C480.007,169.633 479.82,169.425 479.653,169.258L486.153,169.258C485.403,168.425 484.695,167.591 484.028,166.758L485.903,166.758L485.153,165.508L473.153,165.508C473.07,165.341 472.987,165.216 472.903,165.133C472.82,165.05 472.778,164.966 472.778,164.883L501.278,164.883C501.112,164.55 500.945,164.237 500.778,163.946C500.612,163.654 500.445,163.341 500.278,163.008L478.403,163.008L477.653,161.133L495.278,161.133L495.028,160.508L489.778,160.508L489.528,159.883L492.028,159.883C492.028,159.716 492.007,159.591 491.966,159.508C491.924,159.425 491.903,159.341 491.903,159.258L491.403,159.258L491.028,158.008L490.278,158.008L490.153,156.758L489.903,156.758L489.903,156.133L485.903,156.133C485.82,155.966 485.778,155.758 485.778,155.508L485.778,154.883L482.153,154.883L482.028,153.633L496.278,153.633C496.195,153.466 496.153,153.258 496.153,153.008L496.153,152.383L498.153,152.383L498.153,151.008C498.153,150.591 498.195,150.216 498.278,149.883L492.903,149.883C492.987,149.55 493.028,149.237 493.028,148.946C493.028,148.654 493.07,148.341 493.153,148.008L501.903,148.008C501.903,147.841 501.924,147.716 501.966,147.633C502.007,147.55 502.028,147.466 502.028,147.383L493.153,147.383C493.32,146.883 493.403,146.466 493.403,146.133L492.028,146.133L492.403,144.883L490.278,144.883C490.528,143.966 490.82,143.133 491.153,142.383L492.153,142.383L492.653,141.133L494.028,141.133L495.153,139.258L493.903,139.258C494.153,138.925 494.382,138.612 494.591,138.321C494.799,138.029 494.987,137.716 495.153,137.383L494.153,137.383L495.653,135.508L498.278,135.508C498.362,135.341 498.445,135.216 498.528,135.133C498.612,135.05 498.695,134.966 498.778,134.883L495.278,134.883C495.612,134.55 495.945,134.237 496.278,133.946C496.612,133.654 496.945,133.341 497.278,133.008L499.278,133.008C499.778,132.591 500.278,132.154 500.778,131.696C501.278,131.237 501.82,130.841 502.403,130.508L504.653,130.508C505.153,130.175 505.653,129.862 506.153,129.571C506.653,129.279 507.195,128.966 507.778,128.633L507.403,128.633C507.57,128.466 507.778,128.341 508.028,128.258C508.278,128.175 508.487,128.091 508.653,128.008L506.903,128.008C507.07,127.841 507.278,127.716 507.528,127.633C507.778,127.55 508.028,127.466 508.278,127.383L507.028,127.383C508.195,126.883 509.424,126.425 510.716,126.008C512.007,125.591 513.32,125.216 514.653,124.883L516.528,124.883C518.445,124.466 520.466,124.133 522.591,123.883C524.716,123.633 526.945,123.508 529.278,123.508C533.695,123.508 537.862,123.966 541.778,124.883L540.028,124.883C542.695,125.466 545.278,126.3 547.778,127.383L548.903,127.383C549.153,127.466 549.403,127.55 549.653,127.633C549.903,127.716 550.153,127.841 550.403,128.008L552.153,128.008C552.32,128.091 552.528,128.175 552.778,128.258C553.028,128.341 553.237,128.466 553.403,128.633L553.778,128.633C554.362,128.966 554.924,129.279 555.466,129.571C556.007,129.862 556.528,130.175 557.028,130.508L554.903,130.508C555.57,130.841 556.174,131.237 556.716,131.696C557.257,132.154 557.778,132.591 558.278,133.008L556.403,133.008L558.403,134.883L561.903,134.883L562.528,135.508L559.903,135.508C560.237,135.841 560.549,136.154 560.841,136.446C561.132,136.737 561.403,137.05 561.653,137.383L562.653,137.383L564.153,139.258L565.278,139.258L566.403,141.133L565.028,141.133C565.278,141.55 565.487,141.966 565.653,142.383L564.653,142.383C564.903,142.8 565.112,143.216 565.278,143.633C565.445,144.05 565.612,144.466 565.778,144.883L567.903,144.883C568.07,145.383 568.153,145.8 568.153,146.133L569.653,146.133C569.737,146.3 569.778,146.508 569.778,146.758C569.778,147.008 569.82,147.216 569.903,147.383L578.778,147.383L578.778,148.008L570.778,148.008C570.862,148.341 570.903,148.8 570.903,149.383L570.903,149.883L566.278,149.883C565.945,151.383 565.112,152.133 563.778,152.133L538.778,152.133C537.612,152.133 536.674,151.966 535.966,151.633C535.257,151.3 534.528,150.8 533.778,150.133L533.403,149.883L538.028,149.883C537.612,149.55 537.028,149.196 536.278,148.821C535.528,148.446 534.57,148.175 533.403,148.008L528.903,148.008C527.153,148.258 525.945,148.883 525.278,149.883L530.653,149.883C530.403,150.383 530.278,150.883 530.278,151.383C530.278,151.8 530.32,152.133 530.403,152.383L528.528,152.383C528.612,152.8 528.945,153.216 529.528,153.633L515.403,153.633C515.903,154.05 516.778,154.466 518.028,154.883L521.653,154.883C522.32,155.133 523.132,155.362 524.091,155.571C525.049,155.779 526.07,155.966 527.153,156.133L531.153,156.133C531.82,156.216 532.528,156.3 533.278,156.383C534.028,156.466 534.82,156.591 535.653,156.758L535.778,156.758C537.195,156.925 538.57,157.112 539.903,157.321C541.237,157.529 542.487,157.758 543.653,158.008L544.403,158.008C545.403,158.175 546.341,158.362 547.216,158.571C548.091,158.779 548.945,159.008 549.778,159.258L550.278,159.258C550.695,159.341 551.07,159.425 551.403,159.508C551.737,159.591 552.07,159.716 552.403,159.883L550.028,159.883C550.362,159.966 550.674,160.05 550.966,160.133C551.257,160.216 551.57,160.341 551.903,160.508L557.153,160.508C557.403,160.591 557.674,160.675 557.966,160.758C558.257,160.841 558.528,160.966 558.778,161.133L541.153,161.133C542.82,161.8 544.153,162.425 545.153,163.008L567.028,163.008C567.528,163.341 568.028,163.654 568.528,163.946C569.028,164.237 569.487,164.55 569.903,164.883L541.403,164.883C541.57,164.966 541.737,165.05 541.903,165.133C542.07,165.216 542.195,165.341 542.278,165.508L554.278,165.508C554.528,165.675 554.778,165.883 555.028,166.133C555.278,166.383 555.487,166.591 555.653,166.758L553.778,166.758C554.612,167.508 555.32,168.341 555.903,169.258L549.403,169.258C549.57,169.425 549.737,169.633 549.903,169.883C550.07,170.133 550.195,170.341 550.278,170.508L575.028,170.508L576.153,172.383L552.903,172.383C553.07,172.716 553.237,173.029 553.403,173.321C553.57,173.612 553.695,173.925 553.778,174.258L564.528,174.258L564.903,175.508L566.653,175.508L567.028,176.758L569.278,176.758C569.445,177.091 569.549,177.487 569.591,177.946C569.632,178.404 569.695,178.841 569.778,179.258L569.903,180.508L570.653,180.508C570.737,180.675 570.778,180.883 570.778,181.133L570.778,181.758L571.153,181.758L571.153,183.633L572.278,183.633L572.278,184.008C572.278,184.341 572.257,184.675 572.216,185.008C572.174,185.341 572.153,185.716 572.153,186.133L570.903,186.133L570.903,186.758L571.153,186.758C571.153,187.091 571.132,187.404 571.091,187.696C571.049,187.987 570.987,188.3 570.903,188.633L571.278,188.633L570.903,190.508L571.903,190.508C571.82,190.841 571.737,191.154 571.653,191.446C571.57,191.737 571.445,192.05 571.278,192.383L569.903,192.383C569.903,192.466 569.882,192.55 569.841,192.633C569.799,192.716 569.778,192.841 569.778,193.008L572.778,193.008L572.028,194.883L563.653,194.883C563.57,195.216 563.424,195.529 563.216,195.821C563.007,196.112 562.82,196.425 562.653,196.758L580.278,196.758L579.903,197.383L587.528,197.383C587.362,197.716 587.174,198.029 586.966,198.321C586.757,198.612 586.528,198.925 586.278,199.258L570.653,199.258C570.57,199.341 570.487,199.425 570.403,199.508C570.32,199.591 570.237,199.716 570.153,199.883ZM537.653,148.008L541.403,148.008C541.153,147.925 540.882,147.883 540.591,147.883L538.653,147.883C538.32,147.883 537.987,147.925 537.653,148.008Z" style="fill:white;fill-rule:nonzero;"/>
        <path d="M659.778,164.258L666.028,164.258L666.028,166.758L664.903,166.758L664.903,169.258L663.778,169.258L663.778,171.133L661.153,171.133L661.153,171.758L662.153,171.758L662.153,172.383L658.653,172.383L658.653,173.633L664.653,173.633L664.653,175.508L661.028,175.508L661.028,176.133L661.153,176.133C661.153,176.55 661.132,176.966 661.091,177.383C661.049,177.8 661.028,178.216 661.028,178.633L660.903,178.633C660.82,178.883 660.778,179.258 660.778,179.758L660.778,181.133L660.153,181.133C660.07,181.3 660.028,181.508 660.028,181.758L660.028,182.383L661.278,182.383L660.903,184.883L659.778,184.883C659.695,185.3 659.632,185.716 659.591,186.133C659.549,186.55 659.445,186.966 659.278,187.383L660.653,187.383C660.653,187.466 660.632,187.55 660.591,187.633C660.549,187.716 660.528,187.841 660.528,188.008L662.403,188.008C662.403,188.091 662.382,188.175 662.341,188.258C662.299,188.341 662.278,188.466 662.278,188.633L660.028,188.633C659.945,188.966 659.862,189.279 659.778,189.571C659.695,189.862 659.612,190.175 659.528,190.508L659.153,190.508L658.403,192.383L657.028,192.383C656.945,192.716 656.82,193.029 656.653,193.321C656.487,193.612 656.32,193.925 656.153,194.258L657.278,194.258C657.112,194.675 656.903,195.091 656.653,195.508L655.903,195.508C655.82,195.841 655.674,196.154 655.466,196.446C655.257,196.737 655.07,197.05 654.903,197.383L658.778,197.383L657.903,198.633L653.278,198.633L651.903,200.508L653.278,200.508L651.528,202.383L652.903,202.383C652.82,202.466 652.716,202.55 652.591,202.633C652.466,202.716 652.362,202.841 652.278,203.008L653.778,203.008C653.528,203.175 653.299,203.383 653.091,203.633C652.882,203.883 652.653,204.091 652.403,204.258L650.028,204.258C649.778,204.425 649.528,204.633 649.278,204.883C649.028,205.133 648.737,205.341 648.403,205.508L649.278,205.508C649.028,205.675 648.757,205.883 648.466,206.133C648.174,206.383 647.862,206.591 647.528,206.758L647.278,206.758C646.528,207.175 645.778,207.591 645.028,208.008C644.278,208.425 643.487,208.841 642.653,209.258L642.278,209.258C642.028,209.341 641.778,209.425 641.528,209.508C641.278,209.591 641.028,209.716 640.778,209.883C640.195,210.133 639.632,210.362 639.091,210.571C638.549,210.779 637.945,210.966 637.278,211.133L637.153,211.133C634.403,211.966 631.403,212.591 628.153,213.008L628.278,213.008C626.945,213.175 625.549,213.3 624.091,213.383C622.632,213.466 621.195,213.508 619.778,213.508C618.278,213.508 616.82,213.466 615.403,213.383C613.987,213.3 612.57,213.175 611.153,213.008C607.987,212.675 604.945,212.05 602.028,211.133L602.153,211.133C601.57,210.966 600.987,210.779 600.403,210.571C599.82,210.362 599.237,210.133 598.653,209.883L598.528,209.883C598.278,209.716 598.028,209.591 597.778,209.508C597.528,209.425 597.278,209.341 597.028,209.258L597.403,209.258C596.57,208.841 595.778,208.425 595.028,208.008C594.278,207.591 593.528,207.175 592.778,206.758L593.028,206.758L591.153,205.508L590.403,205.508C590.07,205.341 589.778,205.133 589.528,204.883C589.278,204.633 589.028,204.425 588.778,204.258L591.153,204.258L589.653,203.008L588.153,203.008C588.07,202.841 587.987,202.716 587.903,202.633C587.82,202.55 587.695,202.466 587.528,202.383L586.278,202.383C585.945,202.05 585.632,201.737 585.341,201.446C585.049,201.154 584.778,200.841 584.528,200.508L583.153,200.508L581.653,198.633L586.278,198.633L585.528,197.383L581.528,197.383C581.362,197.05 581.195,196.737 581.028,196.446C580.862,196.154 580.695,195.841 580.528,195.508L581.278,195.508C581.028,195.091 580.82,194.675 580.653,194.258L579.528,194.258C579.362,193.925 579.216,193.612 579.091,193.321C578.966,193.029 578.82,192.716 578.653,192.383L580.153,192.383L579.403,190.508L579.778,190.508C579.695,190.175 579.612,189.862 579.528,189.571C579.445,189.279 579.362,188.966 579.278,188.633L580.653,188.633C580.57,188.466 580.528,188.258 580.528,188.008L579.278,188.008C579.278,187.841 579.257,187.716 579.216,187.633C579.174,187.55 579.153,187.466 579.153,187.383L578.903,187.383C578.82,186.966 578.487,185.3 578.403,184.883L579.028,184.883C578.945,184.466 578.882,184.05 578.841,183.633C578.799,183.216 578.778,182.8 578.778,182.383L578.028,182.383L577.903,181.133L578.778,181.133L578.778,179.758C578.778,179.591 578.757,179.404 578.716,179.196C578.674,178.987 578.653,178.8 578.653,178.633L577.028,178.633C576.945,178.216 576.903,177.8 576.903,177.383L576.903,176.133L577.778,176.133L577.778,175.508L577.403,175.508L577.403,173.633L579.903,173.633L579.903,172.383L575.528,172.383L575.528,171.758L577.903,171.758L577.903,171.133L577.778,171.133L577.778,169.258L577.153,169.258L577.153,166.758L577.903,166.758L577.903,164.258L577.028,164.258L577.028,162.383L572.403,162.383L572.403,159.883L577.778,159.883C577.862,159.716 577.903,159.508 577.903,159.258L579.903,159.258L579.903,158.633L578.403,158.633L578.403,157.383L578.528,157.383L578.778,154.883L578.528,154.883C578.528,154.55 578.549,154.237 578.591,153.946C578.632,153.654 578.695,153.341 578.778,153.008L578.403,153.008C578.403,152.675 578.424,152.362 578.466,152.071C578.507,151.779 578.57,151.466 578.653,151.133L578.403,151.133C578.487,150.8 578.57,150.487 578.653,150.196C578.737,149.904 578.82,149.591 578.903,149.258L575.403,149.258C575.403,149.091 575.424,148.966 575.466,148.883C575.507,148.8 575.528,148.716 575.528,148.633L579.278,148.633L579.653,147.383L579.403,147.383L579.653,146.758L581.528,146.758C581.612,146.591 581.695,146.383 581.778,146.133C581.862,145.883 581.945,145.675 582.028,145.508L580.778,145.508C581.028,144.758 581.362,143.925 581.778,143.008L581.403,143.008C581.653,142.591 581.882,142.154 582.091,141.696C582.299,141.237 582.528,140.841 582.778,140.508L583.153,140.508L583.528,139.883L581.528,139.883L581.903,139.258L583.903,139.258L584.278,138.633L584.028,138.633L585.528,136.758L584.653,136.758L586.278,134.883C586.695,134.466 587.132,134.029 587.591,133.571C588.049,133.112 588.528,132.716 589.028,132.383L587.778,132.383L588.528,131.758L587.153,131.758C587.32,131.591 587.466,131.466 587.591,131.383C587.716,131.3 587.862,131.216 588.028,131.133L591.153,131.133C591.487,130.966 591.82,130.758 592.153,130.508C592.487,130.258 592.82,130.05 593.153,129.883L593.528,129.883C594.362,129.466 595.195,129.029 596.028,128.571C596.862,128.112 597.695,127.716 598.528,127.383L598.903,127.383C600.57,126.633 602.403,126.008 604.403,125.508L605.028,125.508C607.445,124.841 609.987,124.341 612.653,124.008C615.32,123.675 618.07,123.508 620.903,123.508C626.82,123.508 632.07,124.175 636.653,125.508L635.903,125.508C636.82,125.758 637.737,126.029 638.653,126.321C639.57,126.612 640.445,126.966 641.278,127.383L640.778,127.383C641.695,127.716 642.549,128.112 643.341,128.571C644.132,129.029 644.945,129.466 645.778,129.883L645.278,129.883L647.153,131.133L644.028,131.133C644.195,131.216 644.341,131.3 644.466,131.383C644.591,131.466 644.737,131.591 644.903,131.758L646.278,131.758C646.445,131.841 646.612,131.925 646.778,132.008C646.945,132.091 647.07,132.216 647.153,132.383L648.403,132.383C648.903,132.716 649.382,133.112 649.841,133.571C650.299,134.029 650.737,134.466 651.153,134.883L651.278,134.883C651.612,135.216 651.903,135.529 652.153,135.821C652.403,136.112 652.653,136.425 652.903,136.758L653.778,136.758L655.278,138.633L655.528,138.633C655.778,138.883 655.945,139.091 656.028,139.258L654.028,139.258L654.403,139.883L656.528,139.883L656.903,140.508L656.528,140.508C656.778,140.841 657.007,141.237 657.216,141.696C657.424,142.154 657.653,142.591 657.903,143.008L658.278,143.008L659.403,145.508L660.653,145.508L661.028,146.758L659.153,146.758L659.403,147.383L659.653,147.383L660.028,148.633L659.653,148.633C659.653,148.716 659.674,148.8 659.716,148.883C659.757,148.966 659.778,149.091 659.778,149.258L654.528,149.258C654.695,149.591 654.799,149.904 654.841,150.196C654.882,150.487 654.945,150.8 655.028,151.133L661.528,151.133C661.612,151.466 661.674,151.779 661.716,152.071C661.757,152.362 661.778,152.675 661.778,153.008L660.028,153.008C660.112,153.341 660.174,153.654 660.216,153.946C660.257,154.237 660.278,154.55 660.278,154.883L661.903,154.883L662.153,157.383L660.528,157.383L660.528,157.758C660.528,157.841 660.549,157.966 660.591,158.133C660.632,158.3 660.653,158.466 660.653,158.633L664.028,158.633L664.028,159.258L661.028,159.258C661.112,159.425 661.153,159.633 661.153,159.883L663.403,159.883C663.487,160.3 663.528,160.716 663.528,161.133L663.528,162.383L659.778,162.383L659.778,164.258ZM632.403,166.758L633.528,166.758L633.528,164.258L627.278,164.258L627.278,162.383L631.028,162.383L631.028,161.133C631.028,160.716 630.987,160.3 630.903,159.883L628.653,159.883C628.653,159.716 628.632,159.591 628.591,159.508C628.549,159.425 628.528,159.341 628.528,159.258L631.528,159.258L631.528,158.633L628.153,158.633C628.153,158.466 628.132,158.341 628.091,158.258C628.049,158.175 628.028,158.091 628.028,158.008L628.028,157.383L629.528,157.383C629.528,156.966 629.507,156.529 629.466,156.071C629.424,155.612 629.362,155.216 629.278,154.883L627.653,154.883C627.57,154.55 627.487,154.237 627.403,153.946C627.32,153.654 627.195,153.341 627.028,153.008L628.778,153.008C628.528,152.341 628.195,151.716 627.778,151.133L621.278,151.133C620.862,150.466 620.195,149.841 619.278,149.258L624.528,149.258C624.028,148.925 623.653,148.716 623.403,148.633L623.778,148.633C622.528,148.133 621.153,147.883 619.653,147.883C618.153,147.883 616.778,148.133 615.528,148.633L611.903,148.633C611.57,148.716 611.153,148.925 610.653,149.258L614.153,149.258C613.487,149.675 612.82,150.3 612.153,151.133L612.403,151.133C611.987,151.716 611.653,152.341 611.403,153.008L611.778,153.008C611.695,153.341 611.612,153.654 611.528,153.946C611.445,154.237 611.32,154.55 611.153,154.883L611.403,154.883C611.32,155.216 611.257,155.612 611.216,156.071C611.174,156.529 611.153,156.966 611.153,157.383L610.903,157.383L610.903,158.633L612.403,158.633L612.403,159.258L610.403,159.258L610.403,159.883L604.903,159.883L604.903,162.383L609.528,162.383L609.528,164.258L610.403,164.258L610.403,166.758L609.653,166.758L609.653,169.258L610.278,169.258L610.278,171.133L610.403,171.133C610.403,171.383 610.445,171.591 610.528,171.758L608.028,171.758L608.028,172.383L612.403,172.383L612.403,173.633L609.903,173.633L609.903,175.508L610.278,175.508L610.278,176.133L609.403,176.133C609.403,176.55 609.424,176.966 609.466,177.383C609.507,177.8 609.528,178.216 609.528,178.633L611.278,178.633L611.278,180.071C611.278,180.446 611.32,180.8 611.403,181.133L610.528,181.133C610.612,181.3 610.653,181.508 610.653,181.758C610.653,182.008 610.695,182.216 610.778,182.383L611.528,182.383C611.612,182.8 611.737,183.216 611.903,183.633C612.07,184.05 612.237,184.466 612.403,184.883L611.778,184.883C612.278,185.8 612.945,186.633 613.778,187.383L614.028,187.383C614.195,187.466 614.362,187.571 614.528,187.696C614.695,187.821 614.862,187.925 615.028,188.008L616.153,188.008C616.403,188.091 616.653,188.196 616.903,188.321C617.153,188.446 617.403,188.55 617.653,188.633L616.153,188.633C617.153,188.966 618.32,189.133 619.653,189.133C620.987,189.133 622.153,188.966 623.153,188.633L625.278,188.633C625.528,188.55 625.778,188.446 626.028,188.321C626.278,188.196 626.528,188.091 626.778,188.008L624.778,188.008C624.945,187.925 625.112,187.821 625.278,187.696C625.445,187.571 625.612,187.466 625.778,187.383L624.403,187.383C625.153,186.8 625.82,185.966 626.403,184.883L627.528,184.883C627.945,183.966 628.278,183.133 628.528,182.383L627.278,182.383C627.362,182.216 627.403,182.008 627.403,181.758C627.403,181.508 627.445,181.3 627.528,181.133L628.153,181.133C628.237,180.8 628.278,180.446 628.278,180.071L628.278,178.633L628.528,178.633L628.528,177.383C628.528,176.966 628.57,176.55 628.653,176.133L628.528,176.133L628.528,175.508L632.153,175.508L632.153,173.633L626.153,173.633L626.153,172.383L629.653,172.383L629.653,171.758L628.653,171.758L628.653,171.133L631.278,171.133L631.278,169.258L632.403,169.258L632.403,166.758Z" style="fill:white;fill-rule:nonzero;"/>
        <path d="M752.528,162.383L746.403,162.383C746.32,162.716 746.237,163.029 746.153,163.321C746.07,163.612 745.945,163.925 745.778,164.258L749.278,164.258L748.903,165.508L745.903,165.508C745.653,166.258 745.32,167.091 744.903,168.008L743.028,168.008C742.695,168.841 742.237,169.675 741.653,170.508L741.903,170.508C741.57,170.925 741.278,171.341 741.028,171.758C740.778,172.175 740.487,172.591 740.153,173.008L753.653,173.008L752.028,174.883L740.903,174.883C740.57,175.3 740.153,175.716 739.653,176.133C739.153,176.55 738.695,176.966 738.278,177.383L739.903,177.383C739.57,177.716 739.174,178.029 738.716,178.321C738.257,178.612 737.82,178.925 737.403,179.258L741.528,179.258L741.028,179.633L742.153,181.758L739.153,181.758L740.528,184.258L740.903,184.258L741.278,184.883L741.153,184.883L742.403,187.383L743.653,187.383L744.403,188.633L734.778,188.633L735.778,190.508L744.528,190.508L745.278,191.758L742.528,191.758L743.528,193.633L755.903,193.633L757.278,196.133L749.028,196.133L750.028,198.008L746.153,198.008L748.153,201.758L749.028,201.758L749.778,203.008L749.403,203.008L749.778,203.633L743.903,203.633L745.278,206.133L745.528,206.758L741.653,206.758L742.278,208.133C742.528,208.466 742.653,208.841 742.653,209.258L745.278,209.258L745.278,209.508C745.278,210.425 744.903,211.175 744.153,211.758L747.528,211.758C747.112,212.091 746.57,212.258 745.903,212.258L720.278,212.258C719.778,212.258 719.341,212.196 718.966,212.071C718.591,211.946 718.195,211.841 717.778,211.758L714.403,211.758C713.737,211.425 713.174,211.008 712.716,210.508C712.257,210.008 711.903,209.591 711.653,209.258L709.153,209.258L708.903,208.883L708.028,206.758L712.028,206.758L711.653,206.133L699.778,206.133L699.778,206.758L693.403,206.758L693.403,209.258L703.528,209.258C703.362,210.425 702.82,211.258 701.903,211.758L701.028,211.758C700.445,212.091 699.82,212.258 699.153,212.258L674.653,212.258C673.903,212.258 673.32,212.091 672.903,211.758L673.903,211.758C672.987,211.258 672.445,210.425 672.278,209.258L662.278,209.258C662.278,209.175 662.257,209.112 662.216,209.071C662.174,209.029 662.153,208.966 662.153,208.883L662.153,206.758L668.528,206.758L668.528,206.133L681.028,206.133L681.028,203.633L667.653,203.633L667.653,203.008L675.528,203.008L675.528,201.758L672.903,201.758L672.903,199.883L677.278,199.883L677.278,198.008L670.153,198.008L670.153,196.133L679.778,196.133L679.778,193.633L674.278,193.633L674.278,191.758L674.153,191.758L674.153,191.133L673.403,191.133L673.403,190.508L670.028,190.508L670.028,188.633L674.278,188.633L674.278,187.383L673.153,187.383L673.153,184.883L673.278,184.883L673.278,184.258L672.903,184.258L672.903,181.758L675.903,181.758L675.903,179.258L671.653,179.258L671.653,177.383L670.028,177.383L670.028,174.883L681.028,174.883L681.028,173.008L667.528,173.008L667.528,170.508L667.278,170.508L667.278,168.008L669.153,168.008L669.153,165.508L672.028,165.508L672.028,164.258L668.528,164.258L668.528,162.383L674.653,162.383L674.653,161.133L683.653,161.133L683.653,159.883L671.278,159.883L671.278,159.258L671.903,159.258L671.903,158.633L673.028,158.633L673.028,158.008L673.153,158.008L673.153,156.758L672.903,156.758L672.903,154.883L673.403,154.883L673.403,152.383L672.778,152.383L672.778,151.133L673.403,151.133L673.403,149.258L672.903,149.258L672.903,148.633L673.278,148.633L673.278,147.383L673.153,147.383L673.153,146.758L672.653,146.758L672.653,146.133L673.778,146.133L673.778,144.258L674.778,144.258L674.778,142.383L668.903,142.383L668.903,139.883L670.278,139.883L670.278,137.383L669.528,137.383L669.528,135.508L672.903,135.508L672.903,133.633L674.153,133.633L674.153,131.758L671.903,131.758L671.903,130.508L672.778,130.508L672.778,129.883L673.028,129.883L673.028,128.008L673.278,128.008C673.278,127.091 673.653,126.258 674.403,125.508L681.153,125.508C681.653,125.008 682.362,124.758 683.278,124.758L720.278,124.758C723.862,124.758 727.195,125.008 730.278,125.508L723.653,125.508C726.987,126.008 730.153,126.841 733.153,128.008L732.903,128.008C734.32,128.508 735.695,129.133 737.028,129.883L736.778,129.883L737.903,130.508L736.903,130.508C737.32,130.675 737.674,130.883 737.966,131.133C738.257,131.383 738.57,131.591 738.903,131.758L741.153,131.758C741.57,132.091 741.987,132.404 742.403,132.696C742.82,132.987 743.195,133.3 743.528,133.633L742.278,133.633C742.695,133.966 743.049,134.279 743.341,134.571C743.632,134.862 743.945,135.175 744.278,135.508L740.903,135.508C741.237,135.841 741.528,136.154 741.778,136.446C742.028,136.737 742.278,137.05 742.528,137.383L743.153,137.383C743.82,138.216 744.403,139.05 744.903,139.883L743.653,139.883C743.903,140.216 744.132,140.612 744.341,141.071C744.549,141.529 744.778,141.966 745.028,142.383L750.903,142.383L751.653,144.258L750.653,144.258C750.737,144.591 750.841,144.904 750.966,145.196C751.091,145.487 751.195,145.8 751.278,146.133L750.028,146.133L750.278,146.758L750.778,146.758C750.862,146.925 750.903,147.133 750.903,147.383L751.278,148.633L751.653,148.633C751.653,148.883 751.695,149.091 751.778,149.258L751.903,149.258C751.987,149.591 752.049,149.904 752.091,150.196C752.132,150.487 752.153,150.8 752.153,151.133L750.528,151.133L750.528,151.758C750.528,152.008 750.57,152.216 750.653,152.383L751.403,152.383C751.403,152.8 751.424,153.216 751.466,153.633C751.507,154.05 751.528,154.466 751.528,154.883L751.528,156.133L752.278,156.133L752.278,156.758L751.528,156.758L751.528,158.008L750.278,158.008C750.278,158.091 750.257,158.175 750.216,158.258C750.174,158.341 750.153,158.466 750.153,158.633L751.403,158.633C751.403,158.716 751.382,158.8 751.341,158.883C751.299,158.966 751.278,159.091 751.278,159.258L757.153,159.258C757.07,159.425 757.028,159.633 757.028,159.883L758.653,159.883L758.528,161.133L752.778,161.133C752.612,161.633 752.528,162.05 752.528,162.383ZM702.528,159.883L714.903,159.883L714.903,161.133L705.903,161.133L705.903,161.258L715.028,161.258C715.612,161.258 716.07,161.216 716.403,161.133L722.153,161.133C723.07,160.883 723.903,160.466 724.653,159.883L722.903,159.883L723.528,159.258L717.653,159.258C717.903,159.008 718.07,158.8 718.153,158.633L716.903,158.633L717.278,158.008L718.528,158.008L718.903,156.758L719.528,156.758C719.612,156.591 719.653,156.383 719.653,156.133L718.903,156.133L719.028,154.883C719.028,154.05 718.903,153.216 718.653,152.383L717.903,152.383C717.82,152.216 717.757,152.008 717.716,151.758C717.674,151.508 717.57,151.3 717.403,151.133L719.153,151.133C718.82,150.466 718.362,149.841 717.778,149.258L717.528,149.258C717.278,149.008 716.987,148.8 716.653,148.633L716.278,148.633C715.445,148.216 714.57,148.008 713.653,148.008L704.528,148.008L704.528,148.633L704.153,148.633L704.153,149.258L704.653,149.258L704.653,151.133L704.028,151.133L704.028,152.383L704.653,152.383L704.653,154.883L704.153,154.883L704.153,156.758L704.403,156.758L704.403,158.008L704.278,158.008L704.278,158.633L703.153,158.633L703.153,159.258L702.528,159.258L702.528,159.883ZM712.403,188.633L711.903,187.383L710.528,187.383L709.528,185.008L704.403,185.008L704.403,187.383L705.528,187.383L705.528,188.633L712.403,188.633ZM701.278,188.633L701.278,190.508L703.653,190.508L702.903,188.633L701.278,188.633ZM712.653,191.133L712.403,190.508L704.653,190.508L704.653,191.133L705.403,191.133L705.403,191.758L705.528,191.758L705.528,193.633L711.028,193.633L711.028,196.133L701.403,196.133L701.403,198.008L708.528,198.008L708.528,199.883L704.153,199.883L704.153,201.758L706.778,201.758L706.778,203.008L698.903,203.008L698.903,203.633L716.528,203.633L716.153,203.008L716.528,203.008L715.903,201.758L714.903,201.758L714.153,199.883L713.278,198.008L717.278,198.008L716.403,196.133L724.528,196.133L723.403,193.633L711.028,193.633L710.278,191.758L713.028,191.758L712.653,191.133Z" style="fill:white;fill-rule:nonzero;"/>
        <path d="M841.153,136.133L853.278,136.133L852.528,137.383L850.028,137.383L848.903,139.258L836.278,139.258L835.528,140.508L837.278,140.508L836.028,142.383L837.653,142.383L836.028,144.883L834.153,144.883L833.028,146.758L837.528,146.758L836.778,148.008L834.653,148.008L833.778,149.258L832.903,149.258L832.528,149.883L830.903,149.883L829.403,152.383L828.278,152.383L827.028,154.258L828.528,154.258L827.778,155.508L828.528,155.508L827.028,158.008L816.778,158.008L815.528,159.883L815.778,159.883L814.153,162.383L825.278,162.383L824.528,163.633L827.528,163.633L827.153,164.258L826.778,164.258L825.903,165.508L827.653,165.508L826.903,166.758L816.778,166.758L816.528,167.133L817.028,168.008L825.528,168.008L827.153,170.508L824.778,170.508L825.528,171.758L824.903,171.758L825.278,172.383L824.403,172.383L825.653,174.258L828.153,174.258L828.528,174.883L832.778,174.883L833.153,175.508L827.028,175.508L827.903,176.758L828.778,176.758L830.403,179.258L829.528,179.258L831.153,181.758L829.028,181.758L829.528,182.383L830.778,184.258L828.278,184.258L828.778,184.883L829.278,184.883L830.528,186.758L833.903,186.758L834.278,187.383L835.528,187.383L835.903,188.008L838.778,188.008L840.403,190.508L840.028,190.508L841.278,192.383L836.528,192.383L836.903,193.008L838.403,193.008L839.653,194.883L835.903,194.883L836.653,196.133L833.278,196.133L834.403,198.008L844.278,198.008L845.528,199.883L844.403,199.883L845.278,201.133L843.778,201.133L845.403,203.633L846.028,203.633L846.903,204.883L847.778,204.883L848.153,205.508L846.653,205.508L848.278,208.008L849.153,208.008L849.278,208.133C849.445,208.466 849.549,208.737 849.591,208.946C849.632,209.154 849.653,209.341 849.653,209.508L849.653,209.883L848.653,209.883C848.487,210.633 848.112,211.258 847.528,211.758L847.278,211.758C846.862,212.091 846.32,212.258 845.653,212.258L817.528,212.258C817.028,212.258 816.591,212.196 816.216,212.071C815.841,211.946 815.445,211.841 815.028,211.758L815.278,211.758C814.278,211.341 813.528,210.716 813.028,209.883L814.028,209.883C813.945,209.716 813.82,209.55 813.653,209.383L812.778,208.008L811.778,208.008L810.153,205.508L811.778,205.508L811.403,204.883L810.403,204.883L809.653,203.633L808.903,203.633L807.278,201.133L808.778,201.133L808.028,199.883L809.153,199.883L807.903,198.008L798.028,198.008L796.778,196.133L800.278,196.133L799.403,194.883L803.278,194.883L802.028,193.008L800.528,193.008L800.278,192.633L800.028,193.008L799.153,193.008L798.028,194.883L794.403,194.883L793.653,196.133L796.153,196.133L794.903,198.008L793.403,198.008L792.278,199.883L796.653,199.883L795.903,201.133L796.528,201.133L795.028,203.633L796.778,203.633L795.903,204.883L793.528,204.883L793.153,205.508L793.653,205.508L792.028,208.008L792.278,208.008L791.403,209.383C791.237,209.55 791.112,209.716 791.028,209.883L790.153,209.883C789.653,210.716 788.903,211.341 787.903,211.758L787.403,211.758C787.07,211.841 786.695,211.946 786.278,212.071C785.862,212.196 785.403,212.258 784.903,212.258L757.653,212.258C756.987,212.258 756.487,212.091 756.153,211.758L756.528,211.758C755.945,211.258 755.57,210.633 755.403,209.883L756.278,209.883L756.278,209.508C756.278,209.341 756.299,209.154 756.341,208.946C756.382,208.737 756.487,208.466 756.653,208.133L756.778,208.008L756.528,208.008L758.153,205.508L757.778,205.508L758.153,204.883L760.528,204.883L761.278,203.633L759.528,203.633L761.153,201.133L760.528,201.133L761.403,199.883L756.903,199.883L758.153,198.008L759.653,198.008L760.903,196.133L758.403,196.133L759.153,194.883L762.903,194.883L764.028,193.008L764.903,193.008L765.278,192.383L770.028,192.383L771.278,190.508L771.528,190.508L773.153,188.008L770.403,188.008L770.778,187.383L769.528,187.383L769.903,186.758L766.528,186.758L767.778,184.883L767.278,184.883L767.653,184.258L770.028,184.258L771.278,182.383L771.153,182.383L771.653,181.758L773.653,181.758L775.278,179.258L776.153,179.258L777.778,176.758L776.903,176.758L777.653,175.508L783.778,175.508L784.278,174.883L780.028,174.883L780.403,174.258L777.903,174.258L779.153,172.383L779.903,172.383L780.403,171.758L781.028,171.758L781.903,170.508L784.278,170.508L785.903,168.008L777.403,168.008L777.778,167.508L777.278,166.758L787.528,166.758L786.653,165.508L785.028,165.508L784.153,164.258L784.653,164.258L784.278,163.633L781.153,163.633L780.403,162.383L769.278,162.383L767.778,159.883L767.528,159.883L766.403,158.008L776.653,158.008L775.153,155.508L774.278,155.508L773.528,154.258L772.028,154.258L770.903,152.383L772.028,152.383L770.528,149.883L772.153,149.883L771.778,149.258L772.653,149.258L771.903,148.008L774.028,148.008L773.278,146.758L768.653,146.758L767.528,144.883L769.403,144.883L767.903,142.383L766.778,142.383L765.528,140.508L771.153,140.508L770.403,139.258L764.153,139.258L763.028,137.383L761.778,137.383L761.028,136.133L768.153,136.133L767.403,134.883L765.653,134.883L764.903,133.633L761.903,133.633L761.153,132.383L761.278,132.383L760.903,131.758L761.778,131.758L760.278,129.258L755.653,129.258L755.403,128.883C755.403,128.8 755.382,128.758 755.341,128.758C755.299,128.758 755.278,128.716 755.278,128.633L758.653,128.633C758.57,128.466 758.507,128.3 758.466,128.133C758.424,127.966 758.403,127.758 758.403,127.508L758.403,127.383L758.528,127.383C758.695,126.55 758.987,125.925 759.403,125.508L758.403,125.508C758.903,125.008 759.528,124.758 760.278,124.758L787.403,124.758C787.987,124.758 788.528,124.841 789.028,125.008C789.528,125.175 789.945,125.341 790.278,125.508L791.403,125.508C791.903,125.758 792.32,126.05 792.653,126.383C792.987,126.716 793.237,127.05 793.403,127.383L793.278,127.383C793.445,127.716 793.528,127.883 793.528,127.883L794.028,128.633L790.653,128.633L790.903,129.258L795.528,129.258L797.028,131.758L796.153,131.758L796.528,132.383L796.403,132.383L797.153,133.633L800.028,133.633L800.778,134.883L802.528,134.883L803.153,136.133L796.028,136.133L796.778,137.383L798.028,137.383L799.153,139.258L814.903,139.258L816.028,137.383L818.528,137.383L819.278,136.133L807.153,136.133L807.903,134.883L810.153,134.883L811.028,133.633L805.903,133.633L806.778,132.383L809.528,132.383L809.903,131.758L809.028,131.758L810.653,129.258L812.653,129.258L813.028,128.633L811.903,128.633L812.403,127.883C812.403,127.883 812.487,127.716 812.653,127.383L813.028,127.383C813.195,127.05 813.445,126.716 813.778,126.383C814.112,126.05 814.528,125.758 815.028,125.508L812.153,125.508C812.57,125.341 813.028,125.175 813.528,125.008C814.028,124.841 814.57,124.758 815.153,124.758L841.028,124.758C841.862,124.758 842.445,125.008 842.778,125.508L845.653,125.508C846.237,126.091 846.528,126.716 846.528,127.383L846.278,127.383L846.278,127.508C846.278,128.008 846.195,128.383 846.028,128.633L847.153,128.633C847.153,128.716 847.132,128.758 847.091,128.758C847.049,128.758 847.028,128.8 847.028,128.883L846.778,129.258L844.778,129.258L843.153,131.758L843.903,131.758L843.528,132.383L840.778,132.383L840.028,133.633L845.028,133.633L844.278,134.883L842.028,134.883L841.153,136.133ZM800.403,140.508L801.528,142.383L802.028,142.383L803.153,140.508L800.403,140.508ZM803.153,143.133L803.528,142.383L802.653,142.383L803.153,143.133Z" style="fill:white;fill-rule:nonzero;"/>
    </g>
</svg>
